<?xml version="1.0"?>
<svg xmlns="http://www.w3.org/2000/svg" viewBox="0 0 16 16" fill="#FEAA02">
    <path style="line-height:normal;text-indent:0;text-align:start;text-decoration-line:none;text-decoration-style:solid;text-decoration-color:#000;text-transform:none;block-progression:tb;isolation:auto;mix-blend-mode:normal" d="M 5.5117188 1 C 4.1389914 1 3.0117186 2.1272727 3.0117188 3.5 L 3.0117188 9.1210938 C 2.4128698 9.7455701 2 10.562418 2 11.5 C 2 13.427167 3.572833 15 5.5 15 C 7.427167 15 9 13.427167 9 11.5 C 9 10.575305 8.5975028 9.7657458 8.0117188 9.1425781 L 8.0117188 3.5 C 8.0117188 2.1272727 6.8844459 1 5.5117188 1 z M 11 1 C 11 1 10 2.366 10 3 C 10 3.634 10.448 4 11 4 C 11.552 4 12 3.634 12 3 C 12 2.366 11 1 11 1 z M 5.5117188 2 C 6.3389914 2 7.0117188 2.6727273 7.0117188 3.5 L 7.0117188 9.2871094 A 0.50005 0.50005 0 0 0 7.1757812 9.6582031 C 7.6819004 10.118998 8 10.766999 8 11.5 C 8 12.886833 6.886833 14 5.5 14 C 4.113167 14 3 12.886833 3 11.5 C 3 10.757148 3.3263782 10.103677 3.84375 9.6425781 A 0.50005 0.50005 0 0 0 4.0117188 9.2695312 L 4.0117188 3.5 C 4.0117188 2.6727273 4.684446 2 5.5117188 2 z M 13.5 4.625 C 13.5 4.625 12 6.62275 12 7.46875 C 12 8.31475 12.672 9 13.5 9 C 14.328 9 15 8.31475 15 7.46875 C 15 6.62275 13.5 4.625 13.5 4.625 z M 5 5 L 5 10.087891 A 1.5 1.5 0 0 0 4 11.5 A 1.5 1.5 0 0 0 5.5 13 A 1.5 1.5 0 0 0 7 11.5 A 1.5 1.5 0 0 0 6 10.087891 L 6 5 L 5 5 z M 12 10 C 12 10 11 11.366 11 12 C 11 12.634 11.448 13 12 13 C 12.552 13 13 12.634 13 12 C 13 11.366 12 10 12 10 z" font-weight="400" font-family="sans-serif" white-space="normal" overflow="visible"/>
</svg>
