<?xml version="1.0" encoding="utf-8"?>
<!-- Generator: Adobe Illustrator 16.0.0, SVG Export Plug-In . SVG Version: 6.00 Build 0)  -->
<!DOCTYPE svg PUBLIC "-//W3C//DTD SVG 1.1//EN" "http://www.w3.org/Graphics/SVG/1.1/DTD/svg11.dtd">
<svg version="1.1" id="Слой_1" xmlns="http://www.w3.org/2000/svg" xmlns:xlink="http://www.w3.org/1999/xlink" x="0px" y="0px"
	 width="512px" height="512px" viewBox="0 0 512 512" enable-background="new 0 0 512 512" xml:space="preserve">
<g id="fahrenheit_degrees">
	<path fill="#DA4453" d="M416,0c-23.563,0-42.672,19.102-42.672,42.664c0,23.57,19.109,42.672,42.672,42.672
		s42.672-19.102,42.672-42.672C458.672,19.102,439.563,0,416,0z M416,64c-11.766,0-21.328-9.57-21.328-21.336
		c0-11.758,9.563-21.328,21.328-21.328s21.328,9.57,21.328,21.328C437.328,54.43,427.766,64,416,64z"/>
	<g>
		<path fill="#DA4453" d="M64,256c-5.891,0-10.672-4.781-10.672-10.672S58.109,234.672,64,234.672h192
			c5.891,0,10.672,4.766,10.672,10.656S261.891,256,256,256H64z"/>
	</g>
	<g>
		<path fill="#ED5564" d="M64,512c-5.891,0-10.672-4.781-10.672-10.656V10.664C53.328,4.773,58.109,0,64,0
			s10.672,4.773,10.672,10.664v490.68C74.672,507.219,69.891,512,64,512z"/>
	</g>
	<g>
		<path fill="#ED5564" d="M320,21.336H64c-5.891,0-10.672-4.781-10.672-10.672S58.109,0,64,0h256
			c5.891,0,10.672,4.773,10.672,10.664S325.891,21.336,320,21.336z"/>
	</g>
</g>
</svg>
