<?xml version="1.0" encoding="utf-8"?>
<!-- Generator: Adobe Illustrator 16.0.0, SVG Export Plug-In . SVG Version: 6.00 Build 0)  -->
<!DOCTYPE svg PUBLIC "-//W3C//DTD SVG 1.0//EN" "http://www.w3.org/TR/2001/REC-SVG-20010904/DTD/svg10.dtd">
<svg version="1.0" id="Layer_1" xmlns="http://www.w3.org/2000/svg" xmlns:xlink="http://www.w3.org/1999/xlink" x="0px" y="0px"
	 width="100px" height="100px" viewBox="0 0 100 100" enable-background="new 0 0 100 100" xml:space="preserve">
<path fill="#BDBDBD" d="M83.333,58.955v-32.29C83.333,17.463,75.868,10,66.666,10c-9.206,0-16.667,7.463-16.667,16.666v32.29
	c-2.104,3.168-3.331,6.963-3.331,11.045c0,11.045,8.953,20,19.998,20c11.044,0,20.001-8.955,20.001-20
	C86.667,65.918,85.437,62.121,83.333,58.955z M66.666,83.333c-7.362,0-13.334-5.969-13.334-13.333c0-3.355,1.284-6.391,3.335-8.732
	V26.666c0-5.519,4.478-10,9.999-10c5.521,0,10.001,4.481,10.001,10v34.602c2.051,2.342,3.332,5.377,3.332,8.732
	C79.999,77.364,74.028,83.333,66.666,83.333z"/>
<path fill="#F44336" d="M70,64.258V23.332h-6.668v40.924c-1.985,1.156-3.333,3.284-3.333,5.744c0,3.682,2.984,6.666,6.667,6.666
	s6.667-2.984,6.667-6.666C73.333,67.54,71.983,65.412,70,64.258z"/>
<rect x="13.333" y="70" fill="#29B6F6" width="23.332" height="6.666"/>
<polygon fill="#F44336" points="36.667,18.332 28.333,18.332 28.333,10 21.667,10 21.667,18.332 13.333,18.332 13.333,25 21.667,25 
	21.667,33.332 28.333,33.332 28.333,25 36.667,25 "/>
</svg>
