<?xml version="1.0" encoding="utf-8"?>

<!DOCTYPE svg PUBLIC "-//W3C//DTD SVG 1.1//EN" "http://www.w3.org/Graphics/SVG/1.1/DTD/svg11.dtd">
<svg version="1.1" xmlns="http://www.w3.org/2000/svg" xmlns:xlink="http://www.w3.org/1999/xlink" x="0px" y="0px" width="96px"
	 height="96px" viewBox="0 0 96 96" enable-background="new 0 0 96 96" xml:space="preserve">
<g id="Base" display="none">
</g>
<g id="Dibujo">
	<g>
		<path d="M21,53c1.104,0,2-0.896,2-2c0-3.859,3.141-7,7-7c0.277,0,0.723,0.068,1.193,0.162V46c0,1.104,0.896,2,2,2
			c1.104,0,2-0.896,2-2v-3.219C36.266,36.528,41.629,32,48,32s11.734,4.528,12.807,10.781V46c0,1.104,0.895,2,2,2
			c1.105,0,2-0.896,2-2v-1.838C65.277,44.068,65.723,44,66,44c3.859,0,7,3.141,7,7c0,1.104,0.896,2,2,2s2-0.896,2-2
			c0-6.065-4.935-11-11-11c-0.507,0-1.112,0.079-1.689,0.184C62.219,33.012,55.664,28,48,28s-14.219,5.012-16.312,12.184
			C31.112,40.079,30.507,40,30,40c-6.065,0-11,4.935-11,11C19,52.104,19.896,53,21,53z"/>
		<path d="M40,59c0,1.104,0.895,2,2,2h36c1.104,0,2-0.896,2-2s-0.896-2-2-2H42C40.895,57,40,57.896,40,59z"/>
		<path d="M48,64c-1.105,0-2,0.896-2,2s0.895,2,2,2h27c1.104,0,2-0.896,2-2s-0.896-2-2-2H48z"/>
		<path d="M78,71H54c-1.105,0-2,0.896-2,2s0.895,2,2,2h24c1.104,0,2-0.896,2-2S79.104,71,78,71z"/>
		<path d="M18,61h18c1.104,0,2-0.896,2-2s-0.896-2-2-2H18c-1.104,0-2,0.896-2,2S16.896,61,18,61z"/>
		<path d="M21,64c-1.104,0-2,0.896-2,2s0.896,2,2,2h21c1.104,0,2-0.896,2-2s-0.896-2-2-2H21z"/>
		<path d="M48,71H18c-1.104,0-2,0.896-2,2s0.896,2,2,2h30c1.104,0,2-0.896,2-2S49.104,71,48,71z"/>
	</g>
</g>
</svg>
