<?xml version="1.0" ?><svg width="64px" height="64px" viewBox="0 0 64 64" style="enable-background:new 0 0 64 64;" version="1.1" xml:space="preserve" xmlns="http://www.w3.org/2000/svg" xmlns:xlink="http://www.w3.org/1999/xlink"><g id="cloudy_sunny"/><g id="bright"/><g id="cloudy"/><g id="high_rainfall"/><g id="windy"/><g id="rain_with_thunder"><path d="M61,29c0-6.1-4.9-11-11-11h-3c-0.5-7.8-7-14-15-14c-6.4,0-12.1,4.1-14.2,10.1C9.8,13,3,19.2,3,27c0,4.7,2.6,9,6.6,11.3   C9.2,39.2,9,40.1,9,41c0,3.9,3.1,7,7,7s7-3.1,7-7c0-0.3,0-0.7-0.1-1h4.6l-3.4,7.6c-0.1,0.3-0.1,0.7,0.1,1S24.7,49,25,49h4.4   l-4.4,9.6c-0.2,0.5,0,1,0.4,1.3c0.2,0.1,0.4,0.2,0.5,0.2c0.3,0,0.6-0.1,0.8-0.3l13-15c0.3-0.3,0.3-0.7,0.2-1.1   C39.7,43.2,39.4,43,39,43h-3.5l1.2-3h4.4C41,40.3,41,40.7,41,41c0,3.9,3.1,7,7,7s7-3.1,7-7c0-0.7-0.1-1.3-0.4-2   C58.5,37.2,61,33.3,61,29z M16,46c-2.8,0-5-2.2-5-5c0-0.8,0.3-1.7,0.8-2.7c0,0,0,0,0,0c0,0,0,0,0,0c1.1-2.1,2.9-4.4,4.2-5.8   c1.9,2,5,6,5,8.6C21,43.8,18.8,46,16,46z M33.2,44.6c0.2,0.3,0.5,0.4,0.8,0.4h2.8l-7,8.1l2.1-4.7c0.1-0.3,0.1-0.7-0.1-1   C31.7,47.2,31.3,47,31,47h-4.5l3.1-7h4.9l-1.5,3.6C32.9,43.9,33,44.3,33.2,44.6z M48,46c-2.8,0-5-2.2-5-5c0-2.6,3.1-6.5,5-8.6   c1.9,2,5,6,5,8.6C53,43.8,50.8,46,48,46z M53.9,37.1c-1.7-3.3-4.7-6.4-5.1-6.8c-0.4-0.4-1-0.4-1.4,0c-0.5,0.5-4,4.1-5.6,7.7H36h-7   h-6.7c-1.5-3.6-5.1-7.2-5.6-7.7c-0.4-0.4-1-0.4-1.4,0c-0.4,0.4-3.1,3.2-4.8,6.2C7.1,34.6,5,30.9,5,27c0-6.1,4.9-11,11-11   c0.7,0,1.5,0.1,2.3,0.2c0.5,0.1,1-0.2,1.2-0.7C21,9.9,26.2,6,32,6c7.2,0,13,5.8,13,13c0,0.6,0.4,1,1,1h4c5,0,9,4,9,9   C59,32.5,57,35.6,53.9,37.1z"/></g><g id="clear_night"/><g id="cloudy_night"/><g id="moon"/><g id="sun"/><g id="rainy_night"/><g id="windy_night"/><g id="night_rain_thunder"/><g id="windy_rain"/><g id="temperature"/><g id="humidity"/><g id="air_pressure"/><g id="low_rainfall"/><g id="moderate_rainfall"/><g id="Sunset"/></svg>