<?xml version="1.0" encoding="utf-8"?>

<!DOCTYPE svg PUBLIC "-//W3C//DTD SVG 1.1//EN" "http://www.w3.org/Graphics/SVG/1.1/DTD/svg11.dtd">
<svg version="1.1" id="Layer_1" xmlns:sketch="http://www.bohemiancoding.com/sketch/ns"
	 xmlns="http://www.w3.org/2000/svg" xmlns:xlink="http://www.w3.org/1999/xlink" x="0px" y="0px" width="62px" height="60px"
	 viewBox="0 0 62 60" enable-background="new 0 0 62 60" xml:space="preserve">
<title>Weather-Storm</title>
<desc>Created with Sketch.</desc>
<g id="Page-1" sketch:type="MSPage">
	<g id="Weather-Storm" transform="translate(1.000000, 1.000000)" sketch:type="MSLayerGroup">
		<path id="Shape_6_" sketch:type="MSShapeGroup" fill="none" stroke="#6B6C6E" stroke-width="2" d="M32.2,52.9
			c0,2.8-2.7,5.1-6.1,5.1s-6.2-2.2-6.2-5c0-1,0.3-1.9,0.9-2.7"/>
		<path id="Shape_5_" sketch:type="MSShapeGroup" fill="none" stroke="#6B6C6E" stroke-width="2" d="M19.5,44.9
			c-0.8,0.6-0.7,2-0.7,2c0,3.4,4.2,6.2,9.3,6.1c4.5-0.1,8.2-2.3,9-5.1l0.3-1"/>
		<path id="Shape_4_" sketch:type="MSShapeGroup" fill="none" stroke="#6B6C6E" stroke-width="2" d="M17.8,38.8
			c-0.7,0.8-1.1,1.4-1.1,2.3c0,3.7,6.4,7,14.1,6.9s14.1-4,14.1-9"/>
		<path id="Shape_3_" sketch:type="MSShapeGroup" fill="none" stroke="#6B6C6E" stroke-width="2" d="M14.1,32
			c-0.2,0.6-0.3,1.1-0.3,1.7c0.1,4.7,8.1,8.4,18,8.3s17.8-4.1,17.8-8.8c0-0.5-0.1-1-0.3-1.5"/>
		<path id="Shape_1_" sketch:type="MSShapeGroup" fill="none" stroke="#6B6C6E" stroke-width="2" d="M8.9,24.2
			c-0.1,0.4-0.1,0.8-0.1,1.3c0.1,6,10.3,10.6,22.9,10.5c12.5-0.2,22.7-5.1,22.6-11.1c0-0.6-0.1-1.2-0.3-1.8"/>
		<path id="Shape" sketch:type="MSShapeGroup" fill="none" stroke="#6B6C6E" stroke-width="2" d="M16,8.7c4.2-1.1,9.1-1.8,14.4-1.8
			c14.7,0,26.6,4.9,26.6,11S45.1,29,30.5,29C15.8,29,3.9,24.1,3.9,18c0-0.7,0.1-1.3,0.4-1.9"/>
		
			<ellipse id="Oval" sketch:type="MSShapeGroup" transform="matrix(-1 0.0045 -0.0045 -1 60.0911 21.8432)" fill="none" stroke="#6B6C6E" stroke-width="2" cx="30.021" cy="10.989" rx="30" ry="11">
		</ellipse>
		<path id="Shape_2_" sketch:type="MSShapeGroup" fill="none" stroke="#6B6C6E" stroke-width="2" d="M40.7,15
			c-2.9-0.6-6-0.9-9.4-0.9c-8.5,0.1-15.9,2.5-19.7,6"/>
	</g>
</g>
</svg>
